<svg width="300" height="180" xmlns="http://www.w3.org/2000/svg">
 <defs>
  <style>.cls-1{fill:#eacee7;}.cls-2{fill:#e8d9e6;}.cls-3{fill:#a6c98f;}.cls-4{fill:#bbc7af;}.cls-5{fill:#e1d91f;}.cls-6{fill:#e3a37b;}.cls-7{fill:#e3a36c;}.cls-8{fill:#e3a37f;}.cls-9{fill:#e3a372;}</style>
 </defs>
 <title>Logo 1</title>
 <g>
  <title>background</title>
  <rect fill="none" id="canvas_background" height="182" width="302" y="-1" x="-1"/>
 </g>
 <g>
  <title>Layer 1</title>
  <g stroke="null" id="图层_6">
   <rect stroke="null" id="svg_1" height="43" width="293" y="111.15784" x="3" class="cls-1"/>
   <rect stroke="null" id="svg_2" height="9" width="160" y="163.15784" x="65" class="cls-2"/>
  </g>
  <g id="_Your_Text_Here_">
   <path id="svg_3" d="m28.72,128.20784a7.22,7.22 0 0 1 -1.66,4.64a8.17,8.17 0 0 1 -4.43,2.81a16.44,16.44 0 0 1 -2.63,0.5c-0.94,0.09 -2,0.14 -3.15,0.14l0,7.44l-2.85,0c0,-0.71 0,-2 0,-3.92s0,-4.84 0,-8.83c0,-1.26 0,-2.82 0,-4.66s0,-3.88 -0.07,-6.13l1.48,0l1.19,0a29.37,29.37 0 0 1 5.17,0.39a10,10 0 0 1 3.59,1.32a6.72,6.72 0 0 1 2.44,2.61a8,8 0 0 1 0.92,3.69zm-3,0a5.1,5.1 0 0 0 -3.36,-5.1a7.63,7.63 0 0 0 -2.28,-0.57c-0.82,-0.08 -1.67,-0.11 -2.53,-0.11l-0.65,0c0,0.13 0,1 0,2.63s0,2.92 0,3.87s0,1.89 0,3.08l0,2l0.71,0a20.23,20.23 0 0 0 2.5,-0.16a8.07,8.07 0 0 0 2.28,-0.58a5.72,5.72 0 0 0 2.52,-1.95a5.35,5.35 0 0 0 0.82,-3.11l-0.01,0z" class="cls-3"/>
   <path id="svg_4" d="m52.69,134.79784a10.51,10.51 0 0 1 -0.73,3.9a8.62,8.62 0 0 1 -2.1,3.19a8.21,8.21 0 0 1 -2.57,1.68a8.38,8.38 0 0 1 -3.21,0.58a8.65,8.65 0 0 1 -3.16,-0.57a7.82,7.82 0 0 1 -2.64,-1.68a8.69,8.69 0 0 1 -2.07,-3.16a11,11 0 0 1 -0.73,-4a10.6,10.6 0 0 1 0.63,-3.72a8.47,8.47 0 0 1 1.94,-3a8.21,8.21 0 0 1 2.74,-1.89a8.47,8.47 0 0 1 3.31,-0.66a8.56,8.56 0 0 1 3.31,0.61a7.62,7.62 0 0 1 2.65,1.82a8.9,8.9 0 0 1 2,3.12a10.56,10.56 0 0 1 0.63,3.78zm-2.81,0.12a9.75,9.75 0 0 0 -0.54,-3.21a6.4,6.4 0 0 0 -1.66,-2.64a4.77,4.77 0 0 0 -1.62,-1a5.45,5.45 0 0 0 -2,-0.36a4.85,4.85 0 0 0 -3.8,1.6a6.64,6.64 0 0 0 -1.47,2.43a9,9 0 0 0 -0.53,3.06a9.66,9.66 0 0 0 0.54,3.29a6.37,6.37 0 0 0 1.76,2.6a4.84,4.84 0 0 0 1.58,0.94a5.7,5.7 0 0 0 1.9,0.32a5.45,5.45 0 0 0 2.07,-0.39a4.82,4.82 0 0 0 1.67,-1.12a6.74,6.74 0 0 0 1.53,-2.46a8.78,8.78 0 0 0 0.57,-3.06z" class="cls-3"/>
   <path id="svg_5" d="m70.81,141.51784l-0.31,2.23l-0.61,0c-0.32,0 -0.6,0 -0.84,0a8.46,8.46 0 0 1 -5.44,-1.5a5.61,5.61 0 0 1 -1.85,-4.62c0,-1.3 0,-2.69 0,-4.18s0,-3.33 0,-5.54l-3,0l0,-2.05l3.24,0l0,-4.17l2.55,0l0,4.17l6.29,0l0,2.05l-6.29,0c0,0.25 0,1 0,2.2s0,2.12 0,2.71l0,4.36a4,4 0 0 0 1.23,3.29a5.86,5.86 0 0 0 3.79,1l1.32,0l-0.08,0.05z" class="cls-3"/>
   <path id="svg_6" d="m91.08,133.67784q0,4.35 0,7.1c0,1.83 0,2.81 0,2.95l-1.63,0.13c-1,0.08 -2.23,0.12 -3.77,0.12a16,16 0 0 1 -2.9,-0.27a9.93,9.93 0 0 1 -2.51,-0.75a6.07,6.07 0 0 1 -2.27,-1.8a4.28,4.28 0 0 1 -0.87,-2.7a4.4,4.4 0 0 1 1,-2.9a7.31,7.31 0 0 1 2.86,-2a16.89,16.89 0 0 1 3.05,-0.86a38.61,38.61 0 0 1 4.35,-0.57a4.67,4.67 0 0 0 -0.69,-2.25a3.54,3.54 0 0 0 -1.7,-1.33a7.34,7.34 0 0 0 -1.72,-0.45a16.18,16.18 0 0 0 -2.22,-0.13c-0.53,0 -1,0 -1.34,0l-1.51,0.09l0.28,-2.34l1.05,-0.06c0.52,0 1.23,0 2.14,0a14.41,14.41 0 0 1 3.7,0.43a6.32,6.32 0 0 1 2.69,1.39a5.83,5.83 0 0 1 1.52,2.26a11.54,11.54 0 0 1 0.49,3.94zm-2.69,4.23l0,-1.51c0,-0.61 0,-1.31 0,-2.11c-0.52,0 -1.42,0.13 -2.71,0.31a14.77,14.77 0 0 0 -3.25,0.78a5.11,5.11 0 0 0 -1.75,1.11a2.43,2.43 0 0 0 -0.76,1.83a2.74,2.74 0 0 0 0.65,1.92a4.06,4.06 0 0 0 1.77,1.12a9.57,9.57 0 0 0 1.91,0.43a17.29,17.29 0 0 0 2.21,0.13l0.86,0l1.07,0c0,-0.08 0,-0.47 0,-1.16s0,-1.68 0,-2.85z" class="cls-3"/>
   <path id="svg_7" d="m110.62,141.51784l-0.32,2.23l-0.6,0c-0.33,0 -0.6,0 -0.84,0a8.49,8.49 0 0 1 -5.45,-1.5a5.6,5.6 0 0 1 -1.84,-4.62c0,-1.3 0,-2.69 0,-4.18s0,-3.33 0,-5.54l-3,0l0,-2.05l3.11,0l0,-4.17l2.55,0l0,4.17l6.29,0l0,2.05l-6.29,0c0,0.25 0,1 0,2.2s0,2.12 0,2.71l0,4.36a4,4 0 0 0 1.23,3.29a5.89,5.89 0 0 0 3.8,1l1.32,0l0.04,0.05z" class="cls-3"/>
   <path id="svg_8" d="m134.29,134.79784a10.51,10.51 0 0 1 -0.73,3.9a8.62,8.62 0 0 1 -2.1,3.19a8.21,8.21 0 0 1 -2.57,1.68a8.31,8.31 0 0 1 -3.21,0.58a8.69,8.69 0 0 1 -3.16,-0.57a7.82,7.82 0 0 1 -2.64,-1.68a8.69,8.69 0 0 1 -2.07,-3.16a11,11 0 0 1 -0.73,-4a10.6,10.6 0 0 1 0.63,-3.72a8.47,8.47 0 0 1 1.94,-3a8.21,8.21 0 0 1 2.74,-1.89a8.47,8.47 0 0 1 3.31,-0.66a8.56,8.56 0 0 1 3.31,0.61a7.62,7.62 0 0 1 2.65,1.82a8.9,8.9 0 0 1 2,3.12a10.56,10.56 0 0 1 0.63,3.78zm-2.81,0.12a10,10 0 0 0 -0.53,-3.21a6.52,6.52 0 0 0 -1.67,-2.64a4.68,4.68 0 0 0 -1.62,-1a5.45,5.45 0 0 0 -2,-0.36a4.85,4.85 0 0 0 -3.8,1.6a6.64,6.64 0 0 0 -1.47,2.43a9,9 0 0 0 -0.53,3.06a9.66,9.66 0 0 0 0.54,3.29a6.47,6.47 0 0 0 1.76,2.6a4.84,4.84 0 0 0 1.58,0.94a5.7,5.7 0 0 0 1.9,0.32a5.45,5.45 0 0 0 2.07,-0.39a4.82,4.82 0 0 0 1.67,-1.12a6.74,6.74 0 0 0 1.53,-2.46a8.55,8.55 0 0 0 0.57,-3.06z" class="cls-3"/>
   <path id="svg_9" d="m171.82,141.52784c0,0.11 0,0.41 -0.1,0.89s-0.1,1 -0.15,1.59l-0.57,0a24.75,24.75 0 0 1 -7.63,-1.08a14,14 0 0 1 -5.49,-3.14a10.46,10.46 0 0 1 -2.36,-3.41a11.16,11.16 0 0 1 -0.87,-4.53a9.89,9.89 0 0 1 0.86,-4.18a11.17,11.17 0 0 1 2.25,-3.29a14.12,14.12 0 0 1 5.43,-3.24a22.09,22.09 0 0 1 7.3,-1.19l0.79,0c0,0.21 0,0.55 0.07,1s0.07,1 0.12,1.5l-0.6,0a22.14,22.14 0 0 0 -4.56,0.49a13.65,13.65 0 0 0 -4.06,1.45a9.21,9.21 0 0 0 -3.42,3.24a8.07,8.07 0 0 0 -1.19,4.26a8.76,8.76 0 0 0 1.07,4.32a8.64,8.64 0 0 0 3.4,3.26a14.55,14.55 0 0 0 4.25,1.58a22.53,22.53 0 0 0 4.67,0.49l0.33,0a4.35,4.35 0 0 0 0.46,-0.01z" class="cls-3"/>
   <path id="svg_10" d="m194.31,143.69784l-2.77,0c0,-0.36 0,-1.41 0,-3.18s0,-2.92 0,-3.49s0,-1.5 0,-2.69s0,-2.06 0,-2.61a4.75,4.75 0 0 0 -0.77,-2.9a3.07,3.07 0 0 0 -2.5,-0.88a7.59,7.59 0 0 0 -2.57,0.6a21.82,21.82 0 0 0 -3.3,1.63l0.07,13.52l-2.78,0c0,-0.46 0,-2.3 0.05,-5.53s0,-5.89 0,-8c0,-1.36 0,-3.08 0,-5.15s0,-4.44 -0.06,-7.12l2.78,0l-0.07,10l0,0a26.57,26.57 0 0 1 4.11,-2a8.83,8.83 0 0 1 2.74,-0.54a4.78,4.78 0 0 1 3.62,1.42a5.37,5.37 0 0 1 1.36,3.87c0,1.48 0,2.75 0,3.82s0,1.95 0,2.61c0,1.07 0,2.3 0,3.68s0.08,2.4 0.09,2.94z" class="cls-3"/>
   <path id="svg_11" d="m216.46,133.67784q0,4.35 0,7.1c0,1.83 0,2.81 0,2.95l-1.63,0.13c-1,0.08 -2.23,0.12 -3.76,0.12a15.81,15.81 0 0 1 -2.9,-0.27a9.88,9.88 0 0 1 -2.52,-0.75a6,6 0 0 1 -2.27,-1.78a4.28,4.28 0 0 1 -0.87,-2.7a4.39,4.39 0 0 1 1,-2.9a7.31,7.31 0 0 1 2.86,-2a16.89,16.89 0 0 1 3,-0.86a38.61,38.61 0 0 1 4.35,-0.57a4.67,4.67 0 0 0 -0.69,-2.25a3.54,3.54 0 0 0 -1.7,-1.33a7.34,7.34 0 0 0 -1.72,-0.45a16.08,16.08 0 0 0 -2.22,-0.13c-0.52,0 -1,0 -1.34,0l-1.51,0.09l0.29,-2.34l1,-0.06c0.52,0 1.24,0 2.14,0a14.41,14.41 0 0 1 3.7,0.43a6.42,6.42 0 0 1 2.7,1.39a5.92,5.92 0 0 1 1.51,2.26a11.54,11.54 0 0 1 0.58,3.92zm-2.69,4.23l0,-1.51c0,-0.61 0,-1.31 0,-2.11c-0.52,0 -1.42,0.13 -2.71,0.31a14.77,14.77 0 0 0 -3.25,0.78a5.21,5.21 0 0 0 -1.75,1.11a2.43,2.43 0 0 0 -0.76,1.83a2.74,2.74 0 0 0 0.65,1.92a4.06,4.06 0 0 0 1.77,1.12a9.57,9.57 0 0 0 1.91,0.43a17.29,17.29 0 0 0 2.21,0.13l0.86,0l1.07,0c0,-0.08 0,-0.47 0,-1.16s0,-1.68 0,-2.85z" class="cls-3"/>
   <path id="svg_12" d="m236.62,127.97784a28.11,28.11 0 0 0 -3,1q-2,0.74 -4.59,2c0,0.13 0,0.71 0,1.76s0,2 0,2.93c0,1.38 0,3 0.05,4.92s0,3 0,3.17l-2.78,0c0,-0.2 0,-0.86 0,-2s0,-3 0,-5.72c0,-1.09 0,-2.61 0,-4.57s0,-3.8 -0.06,-5.53l2.73,0l0,2.67l0,0a38.58,38.58 0 0 1 3.92,-1.95a21.76,21.76 0 0 1 3.09,-1.13l0.64,2.45z" class="cls-3"/>
   <path id="svg_13" d="m246.91,122.49784l-3.09,0l0,-3l3.09,0l0,3zm-0.15,21.2l-2.76,0c0,-0.19 0,-1.35 0,-3.47s0,-3.87 0,-5.25c0,-1.21 0,-2.54 0,-4s0,-3.15 -0.06,-5.09l2.78,0c0,1.68 -0.05,3.26 -0.07,4.73s0,2.78 0,3.93q0,4.09 0,6.58c0.09,1.67 0.11,2.52 0.11,2.57z" class="cls-3"/>
   <path id="svg_14" d="m266.63,141.51784l-0.31,2.23l-0.61,0c-0.32,0 -0.6,0 -0.83,0a8.47,8.47 0 0 1 -5.45,-1.5a5.61,5.61 0 0 1 -1.85,-4.62c0,-1.3 0,-2.69 0,-4.18s0,-3.33 0,-5.54l-2.95,0l0,-2.05l3.11,0l0,-4.17l2.55,0l0,4.17l6.29,0l0,2.05l-6.29,0c0,0.25 0,1 0,2.2s0,2.12 0,2.71l0,4.36a4,4 0 0 0 1.23,3.29a5.86,5.86 0 0 0 3.79,1l1.32,0l0,0.05z" class="cls-3"/>
   <path id="svg_15" d="m289.73,126.62784q-3.44,7.56 -7.22,16.06l-4,9l-2.43,-0.9l3.63,-7.54c-0.09,-0.23 -0.83,-1.94 -2.2,-5.13s-3.05,-7 -5,-11.43l2.62,-1.14q1.94,4.89 3.94,9.66l2.11,5l0,0q0.1,-0.18 2,-4.68t4.15,-9.93l2.4,1.03z" class="cls-3"/>
   <path id="svg_16" d="m78.5,170.20784l-0.63,0.12l-0.81,-4.38l0,0l-0.67,1.46c-0.35,0.77 -0.69,1.54 -1,2.32l-0.54,0c-0.31,-0.72 -0.65,-1.49 -1,-2.32s-0.6,-1.32 -0.66,-1.46l0,0c0,0.07 -0.12,0.57 -0.31,1.5s-0.39,1.88 -0.56,2.88l-0.6,-0.11c0.26,-1.12 0.5,-2.24 0.73,-3.34s0.35,-1.7 0.37,-1.79l0.62,-0.09c0,0.06 0.21,0.48 0.55,1.26s0.75,1.67 1.21,2.69l0,0c0.36,-0.8 0.73,-1.65 1.13,-2.55s0.6,-1.37 0.62,-1.4l0.59,0c0,0.05 0.11,0.62 0.32,1.71s0.39,2.28 0.64,3.5z" class="cls-4"/>
   <path id="svg_17" d="m88.94,170.07784l-0.61,0.31s-0.09,-0.22 -0.25,-0.58s-0.36,-0.82 -0.62,-1.39l-2.31,0c-0.27,0.61 -0.49,1.08 -0.63,1.41s-0.24,0.52 -0.25,0.56l-0.52,-0.28c0.06,-0.14 0.34,-0.73 0.83,-1.79s1,-2.17 1.53,-3.34l0.51,0c0.52,1.17 1,2.3 1.54,3.39l0.78,1.71zm-1.7,-2.16c-0.14,-0.31 -0.28,-0.65 -0.43,-1l-0.49,-1.09l0,0l-0.48,1.06q-0.27,0.63 -0.45,1l1.86,0l-0.01,0.03z" class="cls-4"/>
   <path id="svg_18" d="m95.37,170.28784l-0.64,0c0,-0.16 0,-0.5 0,-1s0,-1.17 0,-1.92c0,-0.31 0,-0.66 0,-1.06s0,-0.81 0,-1.22l0.64,0c0,0.4 0,0.85 0,1.35l0,3c0,0.41 0,0.72 0,0.85zm3.39,-0.36l-0.45,0.43c-0.62,-0.61 -1.22,-1.17 -1.8,-1.69l-1,-0.9l0,0l1,-1.06c0.53,-0.55 1.06,-1.12 1.59,-1.69l0.44,0.39c-0.45,0.43 -0.91,0.89 -1.38,1.37l-0.89,0.92l0,0l0.77,0.71l1.72,1.52z" class="cls-4"/>
   <path id="svg_19" d="m107.93,170.27784l-3.33,0c0,-0.15 0,-0.48 0,-1l0,-2.73c0,-0.48 0,-1 0,-1.5l3.28,0l0,0.54l-2.64,0l0,0.89c0,0.29 0,0.57 0,0.83l2.65,0l0,0.54l-2.65,0l0,1.17c0,0.29 0,0.53 0,0.73l2.69,0l0,0.53z" class="cls-4"/>
   <path id="svg_20" d="m121.4,165.15784c-0.44,1.16 -0.85,2.29 -1.23,3.4s-0.57,1.69 -0.59,1.74l-0.58,0c0,-0.05 -0.15,-0.46 -0.42,-1.24s-0.61,-1.75 -1.05,-2.91l0,0c-0.38,1 -0.73,1.87 -1.06,2.75l-0.51,1.4l-0.55,0c0,-0.07 -0.19,-0.59 -0.51,-1.53s-0.73,-2.13 -1.25,-3.55l0.64,-0.25s0.16,0.49 0.46,1.37s0.63,1.87 1,3l0,0c0.41,-1 0.76,-1.94 1.05,-2.78s0.46,-1.28 0.47,-1.32l0.61,0s0.16,0.52 0.47,1.43s0.62,1.8 0.93,2.67l0,0c0.42,-1.13 0.77,-2.13 1.06,-3l0.44,-1.34l0.62,0.16z" class="cls-4"/>
   <path id="svg_21" d="m132.08,167.66784a3.16,3.16 0 0 1 -0.21,1.17a2.74,2.74 0 0 1 -0.57,0.87a2.5,2.5 0 0 1 -0.82,0.56a2.6,2.6 0 0 1 -0.93,0.17a2.34,2.34 0 0 1 -0.91,-0.17a2.24,2.24 0 0 1 -0.77,-0.49a2.65,2.65 0 0 1 -0.61,-0.9a2.94,2.94 0 0 1 -0.24,-1.21a3.21,3.21 0 0 1 0.19,-1.1a2.59,2.59 0 0 1 0.55,-0.89a2.37,2.37 0 0 1 0.81,-0.57a2.53,2.53 0 0 1 1,-0.2a2.63,2.63 0 0 1 1,0.19a2.35,2.35 0 0 1 0.78,0.53a2.72,2.72 0 0 1 0.58,0.92a3.21,3.21 0 0 1 0.15,1.12zm-0.66,0.07a3.14,3.14 0 0 0 -0.17,-1a2,2 0 0 0 -0.52,-0.82a1.69,1.69 0 0 0 -0.53,-0.35a1.51,1.51 0 0 0 -0.65,-0.13a1.57,1.57 0 0 0 -0.65,0.13a1.67,1.67 0 0 0 -0.55,0.37a2.26,2.26 0 0 0 -0.49,0.77a2.85,2.85 0 0 0 -0.17,1a2.64,2.64 0 0 0 0.18,1a2,2 0 0 0 0.5,0.76a1.79,1.79 0 0 0 0.53,0.34a1.57,1.57 0 0 0 0.65,0.13a1.75,1.75 0 0 0 0.65,-0.12a1.84,1.84 0 0 0 0.55,-0.37a2.07,2.07 0 0 0 0.48,-0.72a2.32,2.32 0 0 0 0.19,-0.99z" class="cls-4"/>
   <path id="svg_22" d="m142.36,169.97784l-0.48,0.4l-0.61,-0.68c-0.35,-0.39 -0.89,-1 -1.62,-1.84l0,0a1.91,1.91 0 0 0 0.39,-0.17a2.36,2.36 0 0 0 0.42,-0.28a1.43,1.43 0 0 0 0.25,-0.33a1.13,1.13 0 0 0 0.11,-0.53a0.86,0.86 0 0 0 -0.16,-0.51a0.85,0.85 0 0 0 -0.44,-0.32a1.53,1.53 0 0 0 -0.47,-0.11l-0.75,0c0,0.49 0,0.93 0,1.31l0,0.8c0,0.36 0,0.84 0,1.45s0,1 0,1.16l-0.65,0c0,-0.16 0,-0.46 0,-0.91s0,-1 0,-1.68l0,-0.72c0,-0.35 0,-1 0,-1.92l1,0c0.22,0 0.44,0 0.66,0a2.29,2.29 0 0 1 0.62,0.17a1.4,1.4 0 0 1 0.61,0.48a1.19,1.19 0 0 1 0.23,0.75a1.28,1.28 0 0 1 -0.34,0.92a2.79,2.79 0 0 1 -0.65,0.55l0,0c0.36,0.42 0.75,0.85 1.18,1.29l0.7,0.72z" class="cls-4"/>
   <path id="svg_23" d="m151.43,170.27784l-3.2,0c0,-0.45 0,-0.9 0,-1.36s0,-0.91 0,-1.35c0,-0.74 0,-1.31 0,-1.7s0,-0.66 0,-0.81l0.65,0c0,0.33 0,0.72 0,1.16l0,2.79c0,0.46 0,0.71 0,0.73l2.56,0l-0.01,0.54z" class="cls-4"/>
   <path id="svg_24" d="m161.75,167.69784a2.14,2.14 0 0 1 -0.34,1.21a2.5,2.5 0 0 1 -0.88,0.83a3.86,3.86 0 0 1 -1,0.43a5.6,5.6 0 0 1 -1.29,0.14l-0.83,0s0,-0.32 0,-0.9s0,-1.15 0,-1.67l0,-1.08c0,-0.44 0,-1 0,-1.59l0.7,0a6.89,6.89 0 0 1 1.44,0.14a3.56,3.56 0 0 1 1.11,0.46a2.35,2.35 0 0 1 0.85,0.87a2.39,2.39 0 0 1 0.24,1.16zm-0.67,0a2,2 0 0 0 -0.21,-0.92a1.83,1.83 0 0 0 -0.7,-0.71a2.68,2.68 0 0 0 -1,-0.39a5.15,5.15 0 0 0 -1,-0.11l-0.17,0c0,0.41 0,0.75 0,1l0,1.45c0,0.42 0,1 0,1.75l0.2,0a4.42,4.42 0 0 0 1,-0.12a3,3 0 0 0 0.87,-0.33a2.17,2.17 0 0 0 0.71,-0.67a1.72,1.72 0 0 0 0.3,-0.95z" class="cls-4"/>
   <path id="svg_25" d="m171.76,168.74784a1.3,1.3 0 0 1 -0.2,0.7a1.48,1.48 0 0 1 -0.59,0.51a2.5,2.5 0 0 1 -0.74,0.26a5.12,5.12 0 0 1 -0.93,0.08l-0.8,0l-0.45,0c0,-0.5 0,-1 0,-1.42l0,-1.27c0,-0.76 0,-1.37 0,-1.82s0,-0.68 0,-0.69l0.43,0l0.73,0a5.5,5.5 0 0 1 0.74,0a3.23,3.23 0 0 1 0.58,0.15a1.37,1.37 0 0 1 0.56,0.4a1.13,1.13 0 0 1 -0.06,1.36a1.32,1.32 0 0 1 -0.58,0.43l0,0a1.52,1.52 0 0 1 0.52,0.12a1.37,1.37 0 0 1 0.45,0.3a1.15,1.15 0 0 1 0.25,0.37a1.21,1.21 0 0 1 0.09,0.52zm-0.67,0a0.86,0.86 0 0 0 -0.07,-0.36a0.82,0.82 0 0 0 -0.21,-0.3a1,1 0 0 0 -0.36,-0.22a1.7,1.7 0 0 0 -0.51,-0.08l-0.53,0l-0.06,-0.47a2,2 0 0 0 0.51,-0.07a1.38,1.38 0 0 0 0.39,-0.18a1,1 0 0 0 0.27,-0.3a0.8,0.8 0 0 0 0.1,-0.41a0.7,0.7 0 0 0 -0.11,-0.41a0.84,0.84 0 0 0 -0.32,-0.27a1.6,1.6 0 0 0 -0.42,-0.13a4.56,4.56 0 0 0 -0.54,0l-0.53,0c0,0.38 0,0.79 0,1.21s0,0.74 0,0.93c0,0.45 0,0.9 0,1.35l0,0.73l0.46,0a7.39,7.39 0 0 0 0.84,0a1.77,1.77 0 0 0 0.65,-0.2a0.83,0.83 0 0 0 0.33,-0.31a0.88,0.88 0 0 0 0.11,-0.49l0,-0.02z" class="cls-4"/>
   <path id="svg_26" d="m181.31,170.27784l-3.31,0c0,-0.15 0,-0.48 0,-1s0,-1 0,-1.56c0,-0.29 0,-0.68 0,-1.17s0,-1 0,-1.5l3.27,0l0,0.54l-2.63,0c0,0.3 0,0.59 0,0.89s0,0.57 0,0.83l2.65,0l0,0.54l-2.65,0c0,0.49 0,0.88 0,1.17s0,0.53 0,0.73l2.68,0l-0.01,0.53z" class="cls-4"/>
   <path id="svg_27" d="m191.26,165.60784l-1.92,0c0,0.53 0,0.94 0,1.22l0,2.52c0,0.48 0,0.79 0,0.95l-0.64,0c0,-0.16 0,-0.48 0,-1s0,-0.95 0,-1.42l0,-1.08c0,-0.26 0,-0.67 0,-1.23l-1.92,0l0,-0.54l4.47,0l0.01,0.58z" class="cls-4"/>
   <path id="svg_28" d="m200.65,165.60784l-1.92,0c0,0.53 0,0.94 0,1.22s0,0.65 0,1.13s0,0.92 0,1.39s0,0.79 0,0.95l-0.64,0c0,-0.16 0,-0.48 0,-1s0,-0.95 0,-1.42l0,-1.08c0,-0.26 0,-0.67 0,-1.23l-1.91,0l0,-0.54l4.47,0l0,0.58z" class="cls-4"/>
   <path id="svg_29" d="m209.75,170.27784l-3.32,0c0,-0.15 0,-0.48 0,-1s0,-1 0,-1.56c0,-0.29 0,-0.68 0,-1.17s0,-1 0,-1.5l3.27,0l0,0.54l-2.63,0c0,0.3 0,0.59 0,0.89s0,0.57 0,0.83l2.65,0l0,0.54l-2.65,0c0,0.49 0,0.88 0,1.17l0,0.73l2.69,0l-0.01,0.53z" class="cls-4"/>
   <path id="svg_30" d="m220.12,169.97784l-0.49,0.4l-0.61,-0.68l-1.61,-1.84l0,0a1.91,1.91 0 0 0 0.39,-0.17a2.36,2.36 0 0 0 0.42,-0.28a1.43,1.43 0 0 0 0.25,-0.33a1.14,1.14 0 0 0 0.1,-0.53a0.85,0.85 0 0 0 -0.15,-0.51a0.85,0.85 0 0 0 -0.44,-0.32a1.53,1.53 0 0 0 -0.48,-0.11l-0.78,0c0,0.49 0,0.93 0,1.31l0,2.24c0,0.62 0,1 0,1.16l-0.64,0c0,-0.16 0,-0.46 0,-0.91s0,-1 0,-1.68l0,-0.72c0,-0.35 0,-1 0,-1.92l1,0c0.22,0 0.44,0 0.66,0a2.29,2.29 0 0 1 0.62,0.17a1.4,1.4 0 0 1 0.61,0.48a1.26,1.26 0 0 1 0.23,0.75a1.28,1.28 0 0 1 -0.34,0.92a2.79,2.79 0 0 1 -0.65,0.55l0,0c0.36,0.42 0.75,0.85 1.18,1.29l0.73,0.73z" class="cls-4"/>
  </g>
  <g id="图层_7">
   <path id="svg_31" d="m169,59.89785c-0.65,13.19 -13.58,25.3 -26.17,26c-16.49,0.9 -31.71,-17.82 -31.81,-37.47c-0.1,-16.17 9.98,-33.53 21.53,-34.53c9.26,-0.79 16.35,9.24 25.65,22.37c7.1,10.06 11.16,15.79 10.8,23.63z" class="cls-5"/>
   <path id="svg_32" d="m139,72.89785a4,4 0 0 1 -2,4c-3.08,1.66 -8.21,-2 -8,-4.5c0.12,-1.49 2.13,-2.35 2.5,-2.5c2.85,-1.15 7,0.36 7.5,3z" class="cls-6"/>
   <path id="svg_33" d="m118,48.39785c0.85,2.17 0.25,5.15 -1,5.5c-1.51,0.42 -4.62,-2.81 -4,-5.5c0.26,-1.14 1.27,-2.51 2.5,-2.5c1.5,0 2.37,2.17 2.5,2.5z" class="cls-7"/>
   <path id="svg_34" d="m132,32.89785c-1.66,4.48 -8.59,6.21 -11,4a4.28,4.28 0 0 1 -1,-3.5c0.57,-4.73 8.12,-8.51 11,-6.5c1.62,1.13 1.72,4.06 1,6z" class="cls-8"/>
   <path id="svg_35" d="m161,73.89785c-1,1.72 -3.43,3 -5,2a3.45,3.45 0 0 1 -1,-4c0.93,-2.37 4.64,-3.3 6,-2c0.94,0.9 0.68,2.8 0,4z" class="cls-9"/>
  </g>
 </g>
</svg>